<svg xmlns="http://www.w3.org/2000/svg" viewBox="0 0 1920 584.61"><defs><style>.cls-1{fill:#047762;}.cls-2{fill:#fff;}.cls-3{fill:#004d41;}</style></defs><g id="Ebene_2" data-name="Ebene 2"><g id="Ebene_1-2" data-name="Ebene 1"><path class="cls-1" d="M465.63,570.11c16.81-47.47,114.75-309.58,390.1-424,250.22-104,478.28-15.89,584.14,25,281.11,108.58,427.2,322.42,477.57,405"/><g id="Ebene_2-2" data-name="Ebene 2"><g id="Ebene_1-2-2" data-name="Ebene 1-2"><path class="cls-2" d="M1733.2,231.58a7.65,7.65,0,0,1-2.21-.34,7.42,7.42,0,0,1-5-8.43l3-17.05-12.45-12.23a7.38,7.38,0,0,1,4.18-12.63l17.14-2.47,8.31-16.59a7.41,7.41,0,0,1,10.38-1.09,8,8,0,0,1,1.09,1.09l.64,1,7.7,15.59,17.18,2.48a7.41,7.41,0,0,1,4.18,12.58l-12.48,12.27,3.06,17.11a7.42,7.42,0,0,1-10.68,7.89l-15.33-8.13-15.26,8.09A7.44,7.44,0,0,1,1733.2,231.58Zm3.23-6.9v.07A.17.17,0,0,1,1736.43,224.68Zm15.48-14.1,14.35,7.6-2.87-16.08,11.78-11.59-16.25-2.34-7-14.17-7,14.17-16.26,2.34,11.79,11.59-2.87,16.06Zm-29.67-19.14h0Zm1.66-5.61.13.12Z"/><path class="cls-2" d="M1457.58,195.25a7.94,7.94,0,0,1-2.26-.34,7.62,7.62,0,0,1-5.25-8.49l3.26-19L1439.72,154a7.56,7.56,0,0,1,4.26-12.9l19-2.78,8.56-17.25a7.77,7.77,0,0,1,4.76-3.85,7.64,7.64,0,0,1,8.66,3.59l.14.28,8.49,17.23,19,2.78a7.57,7.57,0,0,1,4.14,13L1503,167.43l3.1,19a7.62,7.62,0,0,1-6.33,8.71,7.54,7.54,0,0,1-4.58-.71l-17.11-9-17,9A7.56,7.56,0,0,1,1457.58,195.25Zm-1.44-10.3Zm22-11.57,16.51,8.69-3-18.39,13.29-13-18.4-2.7-8.21-16.65L1470,148l-18.43,2.71,13.17,13-3.15,18.35Zm33-21.77h0Zm-65.53,0h0Zm63.84-5.25,0,0Zm-62.23,0,.07.08Z"/><path class="cls-2" d="M1517.64,92a8,8,0,0,1-7.9-9.54l4-23.14-17-16.4a8,8,0,0,1,4.48-13.77l23.33-3.44L1535,4.5a8,8,0,0,1,14.42,0l10.47,21.15,23.36,3.4a7.86,7.86,0,0,1,5.19,2.89,8,8,0,0,1-1,11.12l-16.65,16.2,4,23.26a8,8,0,0,1-6.41,9.28A8.11,8.11,0,0,1,1563,91L1542.2,80l-20.81,11A7.74,7.74,0,0,1,1517.64,92Zm46.61-7.64s0,.07,0,.1Zm-44-.07,0,.08A.31.31,0,0,0,1520.23,84.26Zm-3.81-2.66-.06,0Zm51.56,0,0,0ZM1542.19,68l21.17,11.13-4-23.59,17.18-16.7-23.73-3.45L1542.18,14,1531.61,35.4l-23.69,3.5,17.25,16.64-4.06,23.59Zm-39.45-28.35h0Zm79-.06a.76.76,0,0,0,.21,0Zm-1.47-4.36a.94.94,0,0,0-.1.1ZM1504,35.16l.06.06Zm40.51-26,0,.05Z"/><path class="cls-2" d="M1700.25,146.36a9.08,9.08,0,0,1-4.3-1.08l-29.44-15.57-29.76,15.5a9.09,9.09,0,0,1-13.06-9.42l5.6-33.17-23.83-23.27a8.86,8.86,0,0,1-1.28-12.22,8.93,8.93,0,0,1,6.58-3.43L1643.47,59,1658.31,29a9.09,9.09,0,0,1,16.19-.24l.08.16L1689.32,59l33.14,4.82a9,9,0,0,1,7.68,10.21,9.05,9.05,0,0,1-2.63,5.22l-24,23.44,5.67,33a9.06,9.06,0,0,1-7.33,10.47A8.51,8.51,0,0,1,1700.25,146.36Zm-1.59-8.79v0Zm2.29-1.7h0Zm-34.41-18.19,31.57,16.7L1692.05,99l25.7-25.07-35.53-5.17-15.76-32.26-15.93,32.27-35.46,5.07,25.64,25.05-6,35.35Zm54.4-43.28h0Zm-53.08-40.74h0Z"/><circle class="cls-2" cx="1424.83" cy="43.03" r="8.88"/><circle class="cls-2" cx="1731.92" cy="122.91" r="8.88"/><circle class="cls-2" cx="1767.42" cy="83.86" r="8.88"/><circle class="cls-2" cx="1810.02" cy="76.76" r="8.88"/><circle class="cls-2" cx="1724.82" cy="27.06" r="8.88"/><circle class="cls-2" cx="1479.85" cy="211.67" r="8.88"/><circle class="cls-2" cx="1398.2" cy="119.36" r="8.88"/><circle class="cls-2" cx="1472.75" cy="34.16" r="8.88"/><circle class="cls-2" cx="1451.45" cy="90.96" r="8.88"/><path class="cls-2" d="M1808.25,39.48A17.75,17.75,0,1,1,1826,21.73,17.77,17.77,0,0,1,1808.25,39.48Zm0-28.4a10.65,10.65,0,1,0,10.65,10.65A10.67,10.67,0,0,0,1808.25,11.08Z"/><path class="cls-2" d="M1410.45,211.67a7.1,7.1,0,0,1-7.1-7.1v-35.5a7.1,7.1,0,1,1,14.2,0v35.5A7.1,7.1,0,0,1,1410.45,211.67Z"/><path class="cls-2" d="M1426.6,192.32h-35.5a7.1,7.1,0,1,1,0-14.2h35.5a7.1,7.1,0,1,1,0,14.2Z"/><path class="cls-2" d="M1801,158.42a7.1,7.1,0,0,1-7.1-7.1V115.81a7.1,7.1,0,1,1,14.2,0v35.51A7.1,7.1,0,0,1,1801,158.42Z"/><path class="cls-2" d="M1817.12,139.07h-35.5a7.1,7.1,0,1,1,0-14.2h35.5a7.1,7.1,0,1,1,0,14.2Z"/><path class="cls-2" d="M1554.42,141.73H1554a5.34,5.34,0,0,1-4.9-5.72,27,27,0,0,0-20.78-28.5,5.33,5.33,0,0,1,2.47-10.36,37.64,37.64,0,0,1,28.93,39.67A5.33,5.33,0,0,1,1554.42,141.73Z"/><path class="cls-2" d="M1584.58,174.85a5.32,5.32,0,0,1-5.32-5.21,35.88,35.88,0,0,1,9.38-25,34.47,34.47,0,0,1,15.82-9.53,5.32,5.32,0,1,1,2.85,10.26,23.8,23.8,0,0,0-10.88,6.53,25.22,25.22,0,0,0-6.52,17.52,5.32,5.32,0,0,1-5.21,5.43Z"/><path class="cls-2" d="M1593.47,255.12l-.49,0a5.33,5.33,0,0,1-4.82-5.79,62.57,62.57,0,0,0-11.29-41.87c-17.66-24.34-46.84-25-47.13-25a5.33,5.33,0,1,1,0-10.65c.34,0,34.65.34,55.78,29.47a73.29,73.29,0,0,1,13.25,49.05A5.34,5.34,0,0,1,1593.47,255.12Z"/><path class="cls-2" d="M1617.75,219.41h-.19a5.31,5.31,0,0,1-5.14-5.5,58.32,58.32,0,0,1,56-56.12,5.32,5.32,0,1,1,.39,10.64,47.62,47.62,0,0,0-45.71,45.84A5.34,5.34,0,0,1,1617.75,219.41Z"/><path class="cls-2" d="M1635.32,285.3a5.32,5.32,0,0,1-5.32-5.15c-.19-5.56-.78-55,35.26-76.73a63,63,0,0,1,24.12-8.5,5.33,5.33,0,0,1,1.44,10.56,52.41,52.41,0,0,0-20.06,7.06c-31.36,18.93-30.19,65.29-30.12,67.26a5.31,5.31,0,0,1-5.14,5.49Z"/></g></g><path class="cls-3" d="M0,247.61C69.27,213.27,212.3,147,406.31,171.11c361.5,45,544.91,356,567.05,395,54.39-65.91,143.4-155.19,275.48-223,298.67-153.35,587.67-83.72,671.16-60.5v302l-1920-2Z"/></g></g></svg>