<svg xmlns="http://www.w3.org/2000/svg" viewBox="0 0 1920 671.95"><defs><style>.cls-1{fill:#fff;}.cls-2{fill:#ff7256;}.cls-3{fill:#fc9381;}</style></defs><g id="Ebene_2" data-name="Ebene 2"><g id="Ebene_1-2" data-name="Ebene 1"><g id="Ebene_2-2" data-name="Ebene 2"><g id="Ebene_1-2-2" data-name="Ebene 1-2"><path class="cls-1" d="M466.64,235.47a7.5,7.5,0,0,1-7.39-8.86l3.1-17.39L449.7,196.78a7.27,7.27,0,0,1-2.28-5.11,7.43,7.43,0,0,1,2-5.39,7.54,7.54,0,0,1,4.52-2.34l17.44-2.5,8.45-16.87a7.51,7.51,0,0,1,10.56-1.1,7.13,7.13,0,0,1,1.16,1.17l.59.94L500,181.44,517.44,184a7.55,7.55,0,0,1,4.25,12.8L509,209.22l3.11,17.41a7.55,7.55,0,0,1-10.86,8l-15.59-8.27-15.52,8.22A7.49,7.49,0,0,1,466.64,235.47Zm3.27-7v0S469.91,228.52,469.91,228.51Zm15.75-14.38,14.6,7.73-2.93-16.36,12-11.78-16.53-2.38-7.13-14.41-7.09,14.41L462,193.72l12,11.78-2.92,16.34Zm-30.17-19.47h0Zm1.68-5.71.14.13Z"/><path class="cls-1" d="M186.36,198.54a7.92,7.92,0,0,1-2.3-.35,7.68,7.68,0,0,1-4.55-3.79,7.77,7.77,0,0,1-.78-4.88l3.32-19.31-13.84-13.65a7.7,7.7,0,0,1,4.33-13.12l19.31-2.82,8.7-17.54a7.83,7.83,0,0,1,10.74-3.17,7.73,7.73,0,0,1,2.89,2.87l.17.31L223,140.62l19.35,2.83a7.59,7.59,0,0,1,5,3,7.68,7.68,0,0,1-.82,10.22l-14,13.62,3.15,19.31a7.73,7.73,0,0,1-11.09,8.14l-17.39-9.16-17.3,9.1A7.59,7.59,0,0,1,186.36,198.54Zm-1.45-10.48h0Zm22.34-11.76L224,185.14,221,166.43l13.52-13.18-18.72-2.74-8.35-16.94L199,150.51l-18.75,2.74,13.4,13.22-3.2,18.66Zm33.5-22.14h0Zm-66.64,0h0ZM239,148.83l-.05,0Zm-63.27,0,.06.07Z"/><path class="cls-1" d="M247.44,93.52a8.18,8.18,0,0,1-8-9.7l4-23.54L226.16,43.61a8.15,8.15,0,0,1-.35-11.46,8.23,8.23,0,0,1,4.91-2.54l23.72-3.51L265.06,4.57a8.16,8.16,0,0,1,14.67,0L290.37,26.1l23.76,3.45a8.16,8.16,0,0,1,4.29,14.24L301.47,60.27l4,23.66a8,8,0,0,1-1.29,6A8.11,8.11,0,0,1,299,93.37a8.23,8.23,0,0,1-5.42-.85L272.41,81.39,251.25,92.55A7.88,7.88,0,0,1,247.44,93.52Zm47.39-7.77a.43.43,0,0,1,0,.11Zm-44.76-.07v.07S250.07,85.7,250.07,85.68ZM246.2,83l-.07,0Zm52.43,0,.06,0ZM272.41,69.15l21.52,11.32-4.09-24,17.47-17L283.18,36,272.39,14.19,261.64,36l-24.09,3.56,17.54,16.92-4.12,24ZM232.29,40.33h0Zm80.29-.06.21,0Zm-1.49-4.44a.94.94,0,0,0-.1.1Zm-77.48-.08.07.06S233.63,35.77,233.61,35.75ZM274.79,9.32v0S274.79,9.34,274.79,9.32Z"/><path class="cls-1" d="M433.13,148.83a9.29,9.29,0,0,1-4.37-1.1l-29.94-15.84-30.26,15.77a9.31,9.31,0,0,1-12.5-4.34,9.18,9.18,0,0,1-.78-5.24L361,104.35,336.74,80.69a9,9,0,0,1-1.31-12.43,9.14,9.14,0,0,1,6.7-3.49L375.39,60l15.09-30.58A9.24,9.24,0,0,1,407,29.22l.07.14L422,60l33.7,4.89a9.2,9.2,0,0,1,5.15,15.68l-24.44,23.84L442.19,138a9.21,9.21,0,0,1-7.46,10.64A8.58,8.58,0,0,1,433.13,148.83Zm-1.61-8.94v0Zm2.32-1.73h0Zm-35-18.5,32.11,17-6.17-36,26.14-25.49-36.14-5.25-16-32.8L382.57,69.94l-36.06,5.15,26.08,25.47-6.06,35.95Zm55.32-44h0Zm-54-41.43h0Z"/><circle class="cls-1" cx="153.06" cy="43.75" r="9.03"/><circle class="cls-1" cx="465.33" cy="124.98" r="9.03"/><circle class="cls-1" cx="501.43" cy="85.27" r="9.03"/><circle class="cls-1" cx="544.76" cy="78.05" r="9.03"/><circle class="cls-1" cx="458.11" cy="27.51" r="9.03"/><circle class="cls-1" cx="209.02" cy="215.23" r="9.03"/><circle class="cls-1" cx="125.98" cy="121.37" r="9.03"/><circle class="cls-1" cx="201.8" cy="34.73" r="9.03"/><circle class="cls-1" cx="180.14" cy="92.49" r="9.03"/><path class="cls-1" d="M543,40.15a18.06,18.06,0,1,1,18-18A18.07,18.07,0,0,1,543,40.15Zm0-28.89A10.84,10.84,0,1,0,553.78,22.1,10.85,10.85,0,0,0,543,11.26Z"/><path class="cls-1" d="M138.44,215.24a7.22,7.22,0,0,1-7.22-7.22V171.91a7.22,7.22,0,0,1,14.44,0V208A7.22,7.22,0,0,1,138.44,215.24Z"/><path class="cls-1" d="M154.86,195.56h-36.1a7.22,7.22,0,0,1,0-14.44h36.1a7.22,7.22,0,1,1,0,14.44Z"/><path class="cls-1" d="M535.55,161.08a7.22,7.22,0,0,1-7.22-7.22v-36.1a7.22,7.22,0,0,1,14.44,0v36.1A7.22,7.22,0,0,1,535.55,161.08Z"/><path class="cls-1" d="M552,141.41h-36.1a7.22,7.22,0,0,1,0-14.44H552a7.22,7.22,0,1,1,0,14.44Z"/><path class="cls-1" d="M284.83,144.12l-.42,0a5.41,5.41,0,0,1-5-5.82,27.5,27.5,0,0,0-21.13-29,5.41,5.41,0,1,1,2.51-10.53,38.26,38.26,0,0,1,29.41,40.34A5.41,5.41,0,0,1,284.83,144.12Z"/><path class="cls-1" d="M315.51,177.8a5.41,5.41,0,0,1-5.41-5.31,36.49,36.49,0,0,1,9.53-25.41,35.25,35.25,0,0,1,16.09-9.7,5.42,5.42,0,1,1,2.9,10.44,24.27,24.27,0,0,0-11.06,6.64,25.61,25.61,0,0,0-6.63,17.81,5.43,5.43,0,0,1-5.31,5.53Z"/><path class="cls-1" d="M324.55,259.42l-.5,0a5.42,5.42,0,0,1-4.91-5.88,63.61,63.61,0,0,0-11.47-42.59c-18-24.75-47.63-25.44-47.93-25.44a5.42,5.42,0,1,1,0-10.83c.35,0,35.24.34,56.73,30a74.52,74.52,0,0,1,13.46,49.88A5.42,5.42,0,0,1,324.55,259.42Z"/><path class="cls-1" d="M349.24,223.1h-.19a5.41,5.41,0,0,1-5.23-5.59,59.29,59.29,0,0,1,56.91-57.07,5.35,5.35,0,0,1,5.61,5.21,5.41,5.41,0,0,1-5.21,5.61,48.42,48.42,0,0,0-46.48,46.61A5.42,5.42,0,0,1,349.24,223.1Z"/><path class="cls-1" d="M367.1,290.11a5.42,5.42,0,0,1-5.41-5.24c-.19-5.65-.79-55.9,35.86-78a64,64,0,0,1,24.53-8.64,5.41,5.41,0,0,1,1.46,10.73,53.28,53.28,0,0,0-20.4,7.18c-31.89,19.25-30.69,66.39-30.63,68.39a5.41,5.41,0,0,1-5.23,5.59Z"/></g></g><path class="cls-2" d="M465.62,657.45c16.82-47.47,114.76-309.59,390.11-424,250.22-104,478.28-15.89,584.14,25,281.11,108.57,427.2,322.42,477.57,405"/><path class="cls-3" d="M0,335c69.27-34.34,212.3-100.66,406.31-76.5,361.5,45,544.91,356,567.05,395,54.39-65.91,143.4-155.19,275.48-223C1547.51,277.1,1836.51,346.73,1920,370V672L0,670Z"/></g></g></svg>