<svg xmlns="http://www.w3.org/2000/svg" viewBox="0 0 1920 728.78"><defs><style>.cls-1{fill:#ff7256;}.cls-2{fill:#fc9381;}.cls-10,.cls-11,.cls-12,.cls-13,.cls-14,.cls-15,.cls-3,.cls-4,.cls-5,.cls-6,.cls-7,.cls-8,.cls-9{isolation:isolate;fill:#c08cf0;font-family:PatuaOne-Regular, Patua One;}.cls-3{font-size:38px;}.cls-4{font-size:38.15px;}.cls-5{font-size:38.02px;}.cls-6{font-size:37.9px;}.cls-7{font-size:38.01px;}.cls-8{font-size:38.22px;}.cls-9{font-size:41.25px;}.cls-10{font-size:41.4px;}.cls-11{font-size:41.34px;}.cls-12{font-size:41.25px;}.cls-13{font-size:41.54px;}.cls-14{font-size:41.37px;}.cls-15{font-size:41.58px;}</style></defs><g id="Ebene_2" data-name="Ebene 2"><g id="Ebene_1-2" data-name="Ebene 1"><path class="cls-1" d="M465.63,714.28c16.81-47.46,114.75-309.58,390.1-424,250.22-104,478.28-15.89,584.14,25,281.11,108.58,427.2,322.42,477.57,405"/><path class="cls-2" d="M0,391.78c69.27-34.33,212.3-100.65,406.31-76.5,361.5,45,544.91,356,567.05,395,54.39-65.9,143.4-155.18,275.48-223,298.67-153.34,587.67-83.72,671.16-60.5v302l-1920-2Z"/><text class="cls-3" transform="matrix(0.96, -0.28, 0.28, 0.96, 149.09, 265.15)">K</text><text class="cls-3" transform="translate(171.74 258.58) rotate(-14.06)">o</text><text class="cls-3" transform="translate(191.05 253.71) rotate(-12.1)">n</text><text class="cls-3" transform="translate(213.01 249.03) rotate(-10.03)">n</text><text class="cls-3" transform="translate(235.09 245.23) rotate(-8.34)">t</text><text class="cls-4" transform="translate(248.93 243.16) rotate(-6.96)">e</text><text class="cls-3" transform="translate(275.37 240.15) rotate(-4.69)">i</text><text class="cls-5" transform="matrix(1, -0.06, 0.06, 1, 286.25, 239.22)">c</text><text class="cls-3" transform="translate(303.11 238.19) rotate(-1.57)">h</text><text class="cls-3" transform="translate(333.59 237.54) rotate(1.28)">ü</text><text class="cls-3" transform="translate(355.63 238.08) rotate(3.25)">b</text><text class="cls-6" transform="translate(375.78 239.23) rotate(5.09)">e</text><text class="cls-3" transform="translate(393.96 240.82) rotate(6.57)">r</text><text class="cls-3" transform="translate(408.5 242.5) rotate(8.09)">z</text><text class="cls-7" transform="translate(426.23 245.07) rotate(9.72)">e</text><text class="cls-3" transform="matrix(0.98, 0.2, -0.2, 0.98, 444.17, 248.12)">u</text><text class="cls-3" transform="translate(465.81 252.59) rotate(13.61)">g</text><text class="cls-3" transform="translate(485.38 257.38) rotate(15.38)">e</text><text class="cls-8" transform="translate(502.86 262.03) rotate(17.34)">n</text><text class="cls-3" transform="translate(523.77 268.57) rotate(19.18)">?</text><text class="cls-9" transform="matrix(0.72, -0.57, 0.62, 0.78, 581.02, 181.17)">H</text><text class="cls-10" transform="matrix(0.73, -0.55, 0.6, 0.8, 601.22, 165.23)">i</text><text class="cls-10" transform="matrix(0.75, -0.54, 0.59, 0.81, 609.98, 158.58)">e</text><text class="cls-10" transform="matrix(0.76, -0.52, 0.57, 0.82, 624.73, 147.99)">r</text><text class="cls-11" transform="matrix(0.77, -0.49, 0.54, 0.84, 643.81, 135)">f</text><text class="cls-12" transform="matrix(0.78, -0.48, 0.52, 0.85, 656.42, 126.93)">i</text><text class="cls-13" transform="matrix(0.79, -0.46, 0.5, 0.87, 665.64, 121.15)">n</text><text class="cls-10" transform="matrix(0.81, -0.44, 0.47, 0.88, 684.99, 109.99)">d</text><text class="cls-10" transform="translate(703.45 100.11) rotate(-26.62) scale(0.92 1)">e</text><text class="cls-10" transform="translate(719.71 91.96) rotate(-25.24) scale(0.92 1)">t</text><text class="cls-10" transform="matrix(0.85, -0.35, 0.38, 0.92, 739.95, 82.39)">m</text><text class="cls-10" transform="translate(770.41 69.89) rotate(-20.11) scale(0.92 1)">a</text><text class="cls-14" transform="matrix(0.87, -0.29, 0.31, 0.95, 788.53, 63.31)">n</text><text class="cls-10" transform="translate(817.71 53.75) rotate(-14.89) scale(0.92 1)">m</text><text class="cls-15" transform="matrix(0.89, -0.2, 0.22, 0.98, 849.75, 45.48)">i</text><text class="cls-10" transform="translate(860.42 43.02) rotate(-11.52) scale(0.92 1)">c</text><text class="cls-10" transform="matrix(0.91, -0.15, 0.17, 0.99, 876.94, 39.5)">h</text><text class="cls-10" transform="matrix(0.91, -0.13, 0.14, 0.99, 898.58, 36.01)">:</text></g></g></svg>