<svg xmlns="http://www.w3.org/2000/svg" viewBox="0 0 180 180"><defs><style>.cls-1{fill:#ff7256;}.cls-2{fill:#fff;}</style></defs><g id="Ebene_2" data-name="Ebene 2"><g id="Ebene_1-2" data-name="Ebene 1"><circle class="cls-1" cx="90" cy="90" r="90"/><path class="cls-2" d="M126.65,96.52a2.15,2.15,0,0,1-1.24-.4,2.11,2.11,0,0,1-.85-2.08l.88-5.15-3.74-3.65a2.12,2.12,0,0,1,1.18-3.61l5.17-.75,2.31-4.69a2.11,2.11,0,0,1,1.9-1.18h0a2.11,2.11,0,0,1,1.9,1.18l2.31,4.69,5.18.75a2.11,2.11,0,0,1,1.17,3.61l-3.74,3.65L140,94a2.11,2.11,0,0,1-3.07,2.23l-4.63-2.43-4.63,2.44A2.15,2.15,0,0,1,126.65,96.52Zm-.41-2.9Zm6-3.17,4.44,2.34-.85-5,3.6-3.5-5-.72-2.22-4.5L130,83.62l-5,.72,3.6,3.5-.85,5Zm-.79-12.93Z"/><path class="cls-2" d="M56.92,85.72a2.2,2.2,0,0,1-1-.25l-5.11-2.69-5.1,2.69a2.18,2.18,0,0,1-3.16-2.29l1-5.69-4.14-4a2.17,2.17,0,0,1,1.21-3.71l5.71-.83,2.55-5.18a2.18,2.18,0,0,1,3.91,0h0l2.55,5.18,5.71.83a2.17,2.17,0,0,1,1.21,3.71l-4.14,4,1,5.69a2.18,2.18,0,0,1-2.14,2.54ZM50.79,79.4l5,2.64-1-5.6,4.07-4-5.62-.82-2.52-5.09-2.51,5.09-5.62.82,4.07,4-1,5.6Zm-9.32-8.09Z"/><path class="cls-2" d="M77.19,54.94a2.42,2.42,0,0,1-1.08-.26l-6.27-3.3-6.27,3.3a2.31,2.31,0,0,1-3.35-2.44l1.2-7-5.08-4.95a2.31,2.31,0,0,1,1.28-3.94l7-1L67.77,29a2.31,2.31,0,0,1,4.14,0l3.14,6.35,7,1a2.32,2.32,0,0,1,1.28,3.94l-5.08,4.95,1.2,7a2.31,2.31,0,0,1-2.27,2.7ZM59.44,39.14l5.2,5.07-1.23,7.16L69.84,48l6.43,3.38L75,44.21l5.2-5.07-7.19-1-3.21-6.52L66.62,38.1Z"/><path class="cls-2" d="M117,71.12a2.68,2.68,0,0,1-1.22-.3l-8.88-4.67L98,70.82a2.62,2.62,0,0,1-3.8-2.75l1.7-9.9-7.19-7a2.62,2.62,0,0,1,1.45-4.46l9.93-1.44,4.45-9a2.61,2.61,0,0,1,4.68,0l4.44,9,9.94,1.44A2.62,2.62,0,0,1,125,51.17l-7.19,7,1.69,9.9a2.58,2.58,0,0,1-1,2.55A2.53,2.53,0,0,1,117,71.12ZM91.36,49.57l7.75,7.56L97.28,67.8l9.59-5,9.59,5-1.84-10.67,7.76-7.56L111.66,48l-4.79-9.71L102.08,48Z"/><circle class="cls-2" cx="127.44" cy="68.49" r="2.65"/><circle class="cls-2" cx="136.96" cy="52.62" r="2.65"/><circle class="cls-2" cx="124.27" cy="35.69" r="2.65"/><circle class="cls-2" cx="49.15" cy="37.81" r="2.65"/><circle class="cls-2" cx="40.68" cy="54.73" r="2.65"/><path class="cls-2" d="M97.29,35.1a5.23,5.23,0,1,1,5.23-5.23A5.24,5.24,0,0,1,97.29,35.1Zm0-8.46a3.23,3.23,0,1,0,3.23,3.23A3.24,3.24,0,0,0,97.29,26.64Z"/><path class="cls-2" d="M73.47,69.77h-.11A1.49,1.49,0,0,1,72,68.16a8.19,8.19,0,0,0-6.24-8.58,1.5,1.5,0,1,1,.7-2.91A11.18,11.18,0,0,1,75,68.38,1.5,1.5,0,0,1,73.47,69.77Z"/><path class="cls-2" d="M82.47,79.64A1.49,1.49,0,0,1,81,78.17a10.6,10.6,0,0,1,2.79-7.41A10.26,10.26,0,0,1,88.41,68a1.5,1.5,0,1,1,.82,2.89,7.1,7.1,0,0,0-3.28,2,7.54,7.54,0,0,0-2,5.28,1.51,1.51,0,0,1-1.47,1.53Z"/><path class="cls-2" d="M85.09,103.57h-.15a1.5,1.5,0,0,1-1.35-1.64,18.7,18.7,0,0,0-3.33-12.51C75.37,82.67,67.57,82,66.06,81.9a1.5,1.5,0,1,1,.14-3C68,79,77,79.79,82.69,87.65a21.78,21.78,0,0,1,3.89,14.56A1.51,1.51,0,0,1,85.09,103.57Z"/><path class="cls-2" d="M92.36,92.92H92.3a1.49,1.49,0,0,1-1.44-1.55,17.23,17.23,0,0,1,16.59-16.63,1.5,1.5,0,1,1,.11,3A14.23,14.23,0,0,0,93.85,91.47,1.49,1.49,0,0,1,92.36,92.92Z"/><path class="cls-2" d="M97.57,112.56a1.5,1.5,0,0,1-1.5-1.46c0-1.66-.13-16.38,10.47-22.78a19.06,19.06,0,0,1,7.16-2.52,1.5,1.5,0,0,1,.43,3,15.94,15.94,0,0,0-6,2.12c-9.15,5.52-9.06,18.65-9,20.13a1.5,1.5,0,0,1-1.46,1.54Z"/><path class="cls-2" d="M89.89,160.61h0a3.31,3.31,0,0,1-2.4-1.05L70.82,141.71a4.33,4.33,0,0,1-1.17-3V91.23a2.25,2.25,0,1,1,4.5,0v47.5L89.9,155.57l16.81-17.66,0-37a2.25,2.25,0,0,1,4.5,0V138a4.35,4.35,0,0,1-1.2,3L92.29,159.58A3.32,3.32,0,0,1,89.89,160.61Zm.87-4.12Z"/><path class="cls-2" d="M74,141.32a2,2,0,0,1-1.31-3.51l3.56-3.09a3.06,3.06,0,0,1,3.83-.14l3.09,2.3,4.51-3a3.06,3.06,0,0,1,3.37,0l4.72,3.07,4.89-3.43a3.05,3.05,0,0,1,3.92.35l3.6,3.6a2,2,0,0,1-2.82,2.83l-3.05-3-4.77,3.34a3,3,0,0,1-3.42.06l-4.73-3.08-4.54,3a3.05,3.05,0,0,1-3.53-.09l-3-2.24-3,2.59A2,2,0,0,1,74,141.32Zm8.62-4.07Z"/><rect class="cls-2" x="82.48" y="148.98" width="14.81" height="3"/></g></g></svg>