<svg xmlns="http://www.w3.org/2000/svg" viewBox="0 0 180 180"><defs><style>.cls-1{fill:#ff7256;}.cls-2{fill:#fff;}</style></defs><g id="Ebene_2" data-name="Ebene 2"><g id="Ebene_1-2" data-name="Ebene 1"><circle class="cls-1" cx="90" cy="90" r="90"/><path class="cls-2" d="M58.85,92.84a2.12,2.12,0,0,1-1.22-.4,2.08,2.08,0,0,1-.83-2l.83-4.83-3.51-3.42a2.08,2.08,0,0,1,1.16-3.55l4.84-.71,2.17-4.39a2.09,2.09,0,0,1,3.74,0l2.17,4.39L73,78.6a2.08,2.08,0,0,1,1.16,3.55l-3.51,3.42.83,4.83a2.09,2.09,0,0,1-3,2.2l-4.33-2.28L59.83,92.6A2.12,2.12,0,0,1,58.85,92.84ZM57.54,81.3l3.31,3.22-.78,4.56,4.09-2.15,4.09,2.15-.78-4.56,3.31-3.22-4.58-.66-2-4.15-2,4.15Zm5.8-6.47Z"/><path class="cls-2" d="M123.27,57.06a1.5,1.5,0,0,1-1.5-1.5V51.38a1.5,1.5,0,0,1,3,0v4.18A1.51,1.51,0,0,1,123.27,57.06Z"/><path class="cls-2" d="M131.17,68a6.25,6.25,0,0,1-4.26-1.74,6.64,6.64,0,0,1-2.08-5,1.49,1.49,0,0,1,1.54-1.46,1.51,1.51,0,0,1,1.46,1.54A3.63,3.63,0,0,0,129,64.11a3.19,3.19,0,0,0,2.44.92,3.51,3.51,0,0,0,3-3.66,1.5,1.5,0,0,1,1.44-1.56,1.53,1.53,0,0,1,1.56,1.44A6.48,6.48,0,0,1,131.67,68Z"/><path class="cls-2" d="M140,57.06a1.51,1.51,0,0,1-1.5-1.5V51.38a1.5,1.5,0,1,1,3,0v4.18A1.5,1.5,0,0,1,140,57.06Z"/><path class="cls-2" d="M95.23,143.39a19.8,19.8,0,0,1-13.76-5.69A17.42,17.42,0,0,1,52,127.56a19.39,19.39,0,0,1-13.74-3.09A19.74,19.74,0,0,1,30.56,105a18.58,18.58,0,0,1,0-31.9,18.16,18.16,0,0,1,6.54-17.37A18,18,0,0,1,52,52.25,18.3,18.3,0,0,1,65.16,37.46a18,18,0,0,1,17.52,5,19.81,19.81,0,0,1,14.67-5.06c9.49.8,15.63,9.08,15.69,9.17a2.5,2.5,0,0,1-4.11,2.85h0c0-.07-5-6.44-12-7a15,15,0,0,0-11.2,4.05,4.58,4.58,0,0,1-6.41-.25A13,13,0,0,0,66.44,42.3a13.23,13.23,0,0,0-9.53,11.08,4.57,4.57,0,0,1-5.58,3.84,13,13,0,0,0-15.82,15.2,4.58,4.58,0,0,1-2.21,4.81,13.57,13.57,0,0,0,0,23.53,4.58,4.58,0,0,1,2.22,4.79c-1.08,5.86,1.11,11.69,5.58,14.83a14.24,14.24,0,0,0,10.5,2.18,4.66,4.66,0,0,1,3.5.88,4.56,4.56,0,0,1,1.77,3.11,12.43,12.43,0,0,0,21.36,7.31,4.52,4.52,0,0,1,3.23-1.35h0a4.54,4.54,0,0,1,3.24,1.37c4.46,4.57,11.23,5.83,16.47,3.06a13.67,13.67,0,0,0,7-11,4.56,4.56,0,0,1,5.63-4,12.73,12.73,0,0,0,15.6-14.38,4.57,4.57,0,0,1,2.16-4.61,15.05,15.05,0,0,0,7-9.27c1.71-7-3.41-13.74-3.46-13.81a2.49,2.49,0,0,1,3.94-3.06c.28.35,6.66,8.71,4.38,18.06a20,20,0,0,1-9,12.21,17.73,17.73,0,0,1-21.29,19.82,18.63,18.63,0,0,1-9.59,14.52A17.84,17.84,0,0,1,95.23,143.39Z"/><path class="cls-2" d="M74.46,103.73l1.33,2.43,2.43,1.33a1.23,1.23,0,0,1,0,2.15L75.79,111l-1.33,2.43a1.22,1.22,0,0,1-2.14,0L71,111l-2.43-1.33a1.23,1.23,0,0,1,0-2.15L71,106.16l1.33-2.43A1.22,1.22,0,0,1,74.46,103.73Z"/><path class="cls-2" d="M93.44,72l1.32,2.43,2.43,1.32a1.23,1.23,0,0,1,0,2.15l-2.43,1.33-1.32,2.43a1.23,1.23,0,0,1-2.15,0L90,79.18l-2.43-1.33a1.23,1.23,0,0,1,0-2.15L90,74.38,91.29,72A1.23,1.23,0,0,1,93.44,72Z"/><path class="cls-2" d="M129.54,155.78a10.36,10.36,0,1,1,10.35-10.36A10.37,10.37,0,0,1,129.54,155.78Zm0-16.72a6.36,6.36,0,1,0,6.35,6.36A6.36,6.36,0,0,0,129.54,139.06Z"/><path class="cls-2" d="M131.1,80.52a23.4,23.4,0,1,1,8.78-45.09A2.5,2.5,0,1,1,138,40.06a18.23,18.23,0,0,0-6.9-1.34,18.39,18.39,0,1,0,17.09,11.57,18.14,18.14,0,0,0-3.43-5.49,2.5,2.5,0,1,1,3.71-3.35c.53.58,1,1.2,1.5,1.83a23.35,23.35,0,0,1,4.53,13.84A23.43,23.43,0,0,1,131.1,80.52Z"/><path class="cls-2" d="M97.05,113.27a2.09,2.09,0,0,1-1.22-.4,2.06,2.06,0,0,1-.83-2l.83-4.83-3.51-3.42A2.08,2.08,0,0,1,93.47,99l4.85-.71,2.17-4.39a2.09,2.09,0,0,1,3.74,0h0l2.16,4.39,4.85.71a2.09,2.09,0,0,1,1.16,3.55L108.89,106l.83,4.83a2.09,2.09,0,0,1-3,2.2l-4.33-2.28L98,113A2.08,2.08,0,0,1,97.05,113.27Zm5.31-5.91,4.09,2.15-.78-4.55,3.3-3.23-4.57-.66-2-4.15-2,4.15-4.57.66L99.05,105l-.78,4.55Z"/></g></g></svg>