<svg xmlns="http://www.w3.org/2000/svg" viewBox="0 0 180 180"><defs><style>.cls-1{fill:#ff7256;}.cls-2{fill:#fff;}</style></defs><g id="Ebene_2" data-name="Ebene 2"><g id="Ebene_1-2" data-name="Ebene 1"><circle class="cls-1" cx="90" cy="90" r="90"/><path class="cls-2" d="M53,60.21A11.21,11.21,0,1,1,64.24,49,11.23,11.23,0,0,1,53,60.21Zm0-18.42A7.21,7.21,0,1,0,60.24,49,7.22,7.22,0,0,0,53,41.79Z"/><path class="cls-2" d="M92.86,109.87A11.87,11.87,0,1,1,104.73,98,11.89,11.89,0,0,1,92.86,109.87Zm0-19.74A7.87,7.87,0,1,0,100.73,98,7.89,7.89,0,0,0,92.86,90.13Z"/><path class="cls-2" d="M131.35,60.21A11.21,11.21,0,1,1,142.56,49,11.23,11.23,0,0,1,131.35,60.21Zm0-18.42A7.21,7.21,0,1,0,138.56,49,7.22,7.22,0,0,0,131.35,41.79Z"/><path class="cls-2" d="M111.67,51.59H72.19a2,2,0,0,1,0-4h39.48a2,2,0,0,1,0,4Z"/><path class="cls-2" d="M61.65,135.18H54.84A3.15,3.15,0,0,1,51.7,132V104.22a2,2,0,0,1,4,0v27h5.95a2,2,0,1,1,0,4Z"/><path class="cls-2" d="M130.44,135.9h-7.11a2,2,0,0,1,0-4h6.3V103.62a2,2,0,0,1,4,0v29.09A3.19,3.19,0,0,1,130.44,135.9Z"/><path class="cls-2" d="M70.14,96H34.6a3.32,3.32,0,0,1-3.32-3.31V77.45a12.59,12.59,0,0,1,7.3-11.39,32.66,32.66,0,0,1,27.7,0,12.51,12.51,0,0,1,7.17,11.33V92.66A3.31,3.31,0,0,1,70.14,96ZM35.28,92H69.45V77.44a8.5,8.5,0,0,0-4.86-7.7,28.67,28.67,0,0,0-24.34,0,8.58,8.58,0,0,0-5,7.76Z"/><path class="cls-2" d="M43.15,95.32a2,2,0,0,1-2-2V78.84a2,2,0,0,1,4,0V93.32A2,2,0,0,1,43.15,95.32Z"/><path class="cls-2" d="M62.9,95.32a2,2,0,0,1-2-2V78.84a2,2,0,0,1,4,0V93.32A2,2,0,0,1,62.9,95.32Z"/><path class="cls-2" d="M149.4,96H113.86a3.31,3.31,0,0,1-3.31-3.31V77.45a12.58,12.58,0,0,1,7.29-11.39,32.66,32.66,0,0,1,27.7,0,12.52,12.52,0,0,1,7.18,11.33V92.66A3.32,3.32,0,0,1,149.4,96Zm-34.85-4h34.17V77.44a8.49,8.49,0,0,0-4.87-7.7,28.64,28.64,0,0,0-24.33,0,8.58,8.58,0,0,0-5,7.76Z"/><path class="cls-2" d="M122.42,95.32a2,2,0,0,1-2-2V78.84a2,2,0,0,1,4,0V93.32A2,2,0,0,1,122.42,95.32Z"/><path class="cls-2" d="M142.16,95.32a2,2,0,0,1-2-2V78.84a2,2,0,0,1,4,0V93.32A2,2,0,0,1,142.16,95.32Z"/><path class="cls-2" d="M112.62,150.19H71.93a3.51,3.51,0,0,1-3.51-3.51v-17.4a14.12,14.12,0,0,1,8.19-12.78,37.14,37.14,0,0,1,31.47.06,14,14,0,0,1,8,12.71v17.41A3.51,3.51,0,0,1,112.62,150.19Zm-40.2-4h39.7V129.27a10,10,0,0,0-5.73-9.09,33.19,33.19,0,0,0-28.11-.05,10.12,10.12,0,0,0-5.86,9.15Z"/><path class="cls-2" d="M81.73,149.44a2,2,0,0,1-2-2V130.86a2,2,0,0,1,4,0v16.58A2,2,0,0,1,81.73,149.44Z"/><path class="cls-2" d="M104.33,149.44a2,2,0,0,1-2-2V130.86a2,2,0,0,1,4,0v16.58A2,2,0,0,1,104.33,149.44Z"/><path class="cls-2" d="M102.53,75.82a.66.66,0,0,1-.4-.13.67.67,0,0,1-.27-.67l.25-1.47-1.07-1a.68.68,0,0,1-.17-.7.66.66,0,0,1,.55-.46l1.47-.22.67-1.34a.7.7,0,0,1,1.22,0l.66,1.34,1.48.22a.67.67,0,0,1,.55.46.68.68,0,0,1-.18.7l-1.07,1,.26,1.47a.68.68,0,0,1-1,.72l-1.32-.69-1.33.69A.71.71,0,0,1,102.53,75.82Zm-.15-1Zm-.18-2.62,1,1L103,74.55l1.22-.63,1.21.63-.23-1.35,1-1-1.36-.2-.6-1.23L103.56,72Zm1.68-2Z"/><path class="cls-2" d="M82.16,72.67a.63.63,0,0,1-.33-.09l-1.46-.77-1.47.77a.7.7,0,0,1-1-.73l.28-1.63L77,69.06a.67.67,0,0,1-.18-.71.68.68,0,0,1,.56-.47L79,67.64l.73-1.49a.73.73,0,0,1,1.25,0l.73,1.49,1.64.24a.68.68,0,0,1,.56.47.71.71,0,0,1-.17.72l-1.19,1.15.28,1.63a.68.68,0,0,1-.28.68A.67.67,0,0,1,82.16,72.67ZM81.85,72h0Zm-3.73-3.24,1.12,1.09L79,71.41l1.39-.73,1.38.73-.26-1.54,1.12-1.09-1.55-.23-.69-1.4-.7,1.4Zm2-2.18Z"/><path class="cls-2" d="M93.8,68.4a.82.82,0,0,1-.49-.16.83.83,0,0,1-.33-.81l.49-2.85-2.07-2a.8.8,0,0,1-.21-.84.82.82,0,0,1,.67-.57l2.86-.41L96,58.13a.85.85,0,0,1,1.48,0l1.28,2.6,2.87.41a.83.83,0,0,1,.67.57.82.82,0,0,1-.21.84l-2.08,2,.49,2.85a.8.8,0,0,1-.33.81.81.81,0,0,1-.87.06L96.75,67,94.18,68.3A.75.75,0,0,1,93.8,68.4Zm3-2.57,2.72,1.42-.52-3,2.2-2.15-3-.44-1.36-2.75-1.36,2.75-3,.44,2.2,2.15-.52,3Zm-.16-7.26Z"/><path class="cls-2" d="M87,68h0a.5.5,0,0,1-.46-.53A2.31,2.31,0,0,0,84.72,65a.5.5,0,0,1,.23-1,3.35,3.35,0,0,1,2.54,3.49A.5.5,0,0,1,87,68Z"/><path class="cls-2" d="M89.62,70.89a.51.51,0,0,1-.5-.49A3.18,3.18,0,0,1,90,68.19a3,3,0,0,1,1.39-.83.5.5,0,0,1,.62.34.51.51,0,0,1-.35.62,2.05,2.05,0,0,0-.93.56,2.18,2.18,0,0,0-.56,1.5.5.5,0,0,1-.49.51Z"/><path class="cls-2" d="M90.38,77.88h0a.52.52,0,0,1-.45-.55,5.32,5.32,0,0,0-1-3.61,5.54,5.54,0,0,0-4.1-2.17.49.49,0,0,1-.47-.52.5.5,0,0,1,.52-.48,6.57,6.57,0,0,1,4.86,2.58,6.38,6.38,0,0,1,1.15,4.3A.5.5,0,0,1,90.38,77.88Z"/><path class="cls-2" d="M92.51,74.77h0a.5.5,0,0,1-.48-.52,5.1,5.1,0,0,1,4.91-4.92.46.46,0,0,1,.51.48.5.5,0,0,1-.48.52,4.09,4.09,0,0,0-3.94,4A.5.5,0,0,1,92.51,74.77Z"/><path class="cls-2" d="M94,80.51a.51.51,0,0,1-.5-.49c0-.49,0-4.83,3.09-6.71a5.76,5.76,0,0,1,2.12-.75.5.5,0,0,1,.56.43.5.5,0,0,1-.42.56,4.69,4.69,0,0,0-1.75.62c-2.63,1.59-2.61,5.39-2.6,5.82a.5.5,0,0,1-.49.52Z"/></g></g></svg>