<svg xmlns="http://www.w3.org/2000/svg" viewBox="0 0 180 180"><defs><style>.cls-1{fill:#ff7256;}.cls-2{fill:#fff;}</style></defs><g id="Ebene_2" data-name="Ebene 2"><g id="Ebene_1-2" data-name="Ebene 1"><circle class="cls-1" cx="90" cy="90" r="90"/><path class="cls-2" d="M91,116.74a17.5,17.5,0,1,1,17.5-17.5A17.52,17.52,0,0,1,91,116.74Zm0-30a12.5,12.5,0,1,0,12.5,12.5A12.52,12.52,0,0,0,91,86.74Z"/><path class="cls-2" d="M110.07,155.24H71.49a4.51,4.51,0,0,1-4.5-4.48l-.06-12.17L26.87,93a9.6,9.6,0,0,1-2.29-7.65,9,9,0,0,1,4-6.33q.38-.24.78-.45c.25-.13.51-.25.77-.36a9.15,9.15,0,0,1,10.39,2.67L79.18,125.7a34.05,34.05,0,0,1,25.21-.3l-1.78,4.67a29,29,0,0,0-21.83.38,4.46,4.46,0,0,1-5.15-1.22L36.72,84.09A4.23,4.23,0,0,0,32,82.79a2.26,2.26,0,0,0-.35.17,2.22,2.22,0,0,0-.37.21A3.94,3.94,0,0,0,29.53,86a4.6,4.6,0,0,0,1.1,3.66l40.18,45.78a4.49,4.49,0,0,1,1.12,2.94L72,150.24h37.6l.41-12.58,5,.16-.43,13.07A4.48,4.48,0,0,1,110.07,155.24Z"/><path class="cls-2" d="M110.51,155.24H71.93a4.48,4.48,0,0,1-4.5-4.36L67,137.82l5-.16.24,7.48v0l.17,5.07H110l.06-11.87a4.49,4.49,0,0,1,1.12-2.94l40.18-45.78a4.6,4.6,0,0,0,1.1-3.66,3.94,3.94,0,0,0-1.76-2.82,2.6,2.6,0,0,0-.36-.21,2.92,2.92,0,0,0-.36-.17,4.23,4.23,0,0,0-4.71,1.3L105.89,129.8a3.53,3.53,0,0,1-4.08.91,29,29,0,0,0-21.36-1,4.49,4.49,0,0,1-4.59-1l-4.42-4.3a2.5,2.5,0,0,1,3.48-3.59l4.21,4.09a34,34,0,0,1,23.69.84l38.67-44.87a9.16,9.16,0,0,1,10.4-2.67l.77.36c.26.14.52.29.77.45a9,9,0,0,1,4,6.33A9.6,9.6,0,0,1,155.13,93l-40.06,45.64L115,150.76A4.51,4.51,0,0,1,110.51,155.24Z"/><path class="cls-2" d="M123.37,80.32a2.06,2.06,0,0,1-.93-.23L119,78.26l-3.47,1.83A2,2,0,0,1,112.62,78l.66-3.87-2.81-2.74a2,2,0,0,1,1.1-3.38l3.88-.57,1.74-3.52a2,2,0,0,1,3.56,0l1.74,3.52,3.88.57a1.94,1.94,0,0,1,1.6,1.35,2,2,0,0,1-.5,2l-2.81,2.74.66,3.87a2,2,0,0,1-.79,1.94A2,2,0,0,1,123.37,80.32ZM114,70.68l2.46,2.4-.58,3.4,3-1.61,3,1.61-.58-3.4,2.46-2.4-3.41-.5L119,67.09l-1.53,3.09Zm4-5.43Z"/><path class="cls-2" d="M50.34,71.86a2,2,0,0,1-1.18-.39,2,2,0,0,1-.81-2l.73-4.28-3.11-3a2,2,0,0,1,1.12-3.46l4.31-.63,1.92-3.9a2,2,0,0,1,3.64,0l1.93,3.9,4.3.63a2,2,0,0,1,1.13,3.46l-3.12,3,.74,4.29A2,2,0,0,1,59,71.62l-3.85-2-3.85,2A2,2,0,0,1,50.34,71.86Zm4.8-5.65,3.51,1.84L58,64.15l2.84-2.77-3.92-.57-1.76-3.55-1.75,3.55-3.92.57,2.84,2.77-.67,3.9ZM54.27,55.5Zm1.74,0Z"/><path class="cls-2" d="M75.82,47.75a2.17,2.17,0,0,1-1-.25L70.06,45,65.3,47.5a2.11,2.11,0,0,1-2.25-.17,2.13,2.13,0,0,1-.85-2.08l.91-5.31-3.85-3.75A2.14,2.14,0,0,1,58.72,34a2.11,2.11,0,0,1,1.72-1.45l5.33-.77L68.15,27A2.14,2.14,0,0,1,72,27l2.38,4.83,5.32.77a2.13,2.13,0,0,1,1.18,3.64L77,39.94l.91,5.31a2.11,2.11,0,0,1-.85,2.08A2.07,2.07,0,0,1,75.82,47.75ZM62.61,35.27l3.73,3.63L65.46,44l4.6-2.43L74.67,44l-.88-5.13,3.72-3.63-5.14-.75-2.31-4.67-2.3,4.67Zm6.68-7Z"/><path class="cls-2" d="M91.16,60.42a2.37,2.37,0,0,1-2.34-2.77l1.3-7.59-5.5-5.37A2.34,2.34,0,0,1,84,42.26a2.38,2.38,0,0,1,1.92-1.61l7.61-1.11L97,32.64a2.35,2.35,0,0,1,2.12-1.32h0a2.36,2.36,0,0,1,2.12,1.32h0l3.41,6.9,7.61,1.11a2.37,2.37,0,0,1,1.32,4L108,50.06l1.3,7.59a2.38,2.38,0,0,1-3.45,2.5l-6.8-3.58-6.81,3.58A2.42,2.42,0,0,1,91.16,60.42Zm-3.54-17L93.35,49,92,56.9l7.08-3.72,7.07,3.72L104.8,49l5.73-5.59-7.92-1.15-3.53-7.17-3.54,7.17Z"/><circle class="cls-2" cx="114.36" cy="54.72" r="2.07"/><circle class="cls-2" cx="122.65" cy="45.6" r="2.07"/><circle class="cls-2" cx="112.7" cy="32.33" r="2.07"/><circle class="cls-2" cx="53.85" cy="33.99" r="2.07"/><circle class="cls-2" cx="48.88" cy="47.26" r="2.07"/><path class="cls-2" d="M132.18,35.41a4.32,4.32,0,1,1,4.32-4.32A4.32,4.32,0,0,1,132.18,35.41Zm0-6.63a2.32,2.32,0,1,0,2.32,2.31A2.31,2.31,0,0,0,132.18,28.78Z"/><path class="cls-2" d="M130.49,63.35a2,2,0,0,1-2-2V53.06a2,2,0,0,1,4,0v8.29A2,2,0,0,1,130.49,63.35Z"/><path class="cls-2" d="M134.26,58.83H126a2,2,0,0,1,0-4h8.29a2,2,0,0,1,0,4Z"/><path class="cls-2" d="M70.08,75a4.39,4.39,0,0,1-2.14-.57,4.32,4.32,0,1,1,3.28.41A4.08,4.08,0,0,1,70.08,75Zm0-6.64a2.08,2.08,0,0,0-.6.09,2.29,2.29,0,0,0-1.41,1.08,2.35,2.35,0,0,0-.22,1.76,2.32,2.32,0,1,0,2.23-2.93Z"/></g></g></svg>