<svg xmlns="http://www.w3.org/2000/svg" xmlns:xlink="http://www.w3.org/1999/xlink" viewBox="0 0 357.97 368.5"><defs><style>.cls-1{fill:none;}.cls-2{clip-path:url(#clip-path);}.cls-3{fill:#047762;}</style><clipPath id="clip-path" transform="translate(0 0)"><rect class="cls-1" width="357.98" height="368.5"/></clipPath></defs><g id="Ebene_2" data-name="Ebene 2"><g id="Ebene_1-2" data-name="Ebene 1"><g class="cls-2"><path class="cls-3" d="M179,136.88a57.91,57.91,0,1,0,57.9,57.9,58,58,0,0,0-57.9-57.9m0,152.66a94.76,94.76,0,1,1,94.76-94.76A94.87,94.87,0,0,1,179,289.54M107.92,36.85a71.15,71.15,0,0,0-71.07,71.07V260.59a71.15,71.15,0,0,0,71.07,71.07H250.05a71.15,71.15,0,0,0,71.07-71.07V107.92a71.15,71.15,0,0,0-71.07-71.07ZM250.05,368.5H107.92A108,108,0,0,1,0,260.59V107.92A108,108,0,0,1,107.92,0H250.05A108,108,0,0,1,358,107.92V260.59A108,108,0,0,1,250.05,368.5" transform="translate(0 0)"/><path class="cls-3" d="M294.8,85.55a22.38,22.38,0,1,1-22.37-22.37A22.37,22.37,0,0,1,294.8,85.55" transform="translate(0 0)"/></g></g></g></svg>