<svg xmlns="http://www.w3.org/2000/svg" xmlns:xlink="http://www.w3.org/1999/xlink" viewBox="0 0 253.94 382.68"><defs><style>.cls-1{fill:none;}.cls-2{clip-path:url(#clip-path);}.cls-3{fill:#047762;}</style><clipPath id="clip-path" transform="translate(0 0)"><rect class="cls-1" width="253.94" height="382.68"/></clipPath></defs><g id="Ebene_2" data-name="Ebene 2"><g id="Ebene_1-2" data-name="Ebene 1"><g class="cls-2"><path class="cls-3" d="M178.74,163.06,135.85,214a9.36,9.36,0,0,1-13,0L79.29,162.43C43.2,127.16,66.54,85.21,101.72,94.32c7.54,2,19.24,21.28,27,28.84,7.23-7.07,21.22-26.21,28.3-28.84,36.71-13.64,59.2,32.14,21.75,68.74m75.2-39c0-73-64.43-131.2-140.72-123.37C56.13,6.57,9.3,50.78,1.28,106.32a121.26,121.26,0,0,0,15.84,79.79L70.5,295.79,106.64,370c8.2,16.85,32.75,16.85,41,0l36.13-74.25L238.13,184a121.21,121.21,0,0,0,15.81-59.9" transform="translate(0 0)"/></g></g></g></svg>