<svg xmlns="http://www.w3.org/2000/svg" xmlns:xlink="http://www.w3.org/1999/xlink" viewBox="0 0 382.67 382.68"><defs><style>.cls-1{fill:none;}.cls-2{clip-path:url(#clip-path);}.cls-3{fill:#047762;}</style><clipPath id="clip-path" transform="translate(0 0)"><rect class="cls-1" width="382.68" height="382.68"/></clipPath></defs><g id="Ebene_2" data-name="Ebene 2"><g id="Ebene_1-2" data-name="Ebene 1"><g class="cls-2"><path class="cls-3" d="M271.49,259.42c-17.76,0-33.25-7.74-37.34-24.14-13.21,17.77-35.53,26.87-58.29,26.87-34.16,0-56-20.94-56-54.65,0-45.08,32.79-81.06,79.69-81.06,40.08,0,58.3,18.22,58.3,52.83,0,38.71-.46,56,15.94,56,17.3,0,28.69-16.39,28.69-48.27,0-60.57-26.87-108.84-105.2-108.84-76.06,0-116.13,48.73-116.13,118.4,0,78.33,54.19,109.31,105.2,109.31,16.85,0,24.59-1.83,48.27-10,11.84-4.1,23.23,11.38,10,20.95-9.11,6.82-35.52,12.29-58.29,12.29C118,329.1,52,288.57,52,195.21c0-91.08,61.94-141.63,144.37-141.63,77.42,0,134.34,43.26,134.34,131.61,0,49.64-26.87,74.23-59.2,74.23M191.34,0C85.66,0,0,85.66,0,191.34S85.66,382.68,191.34,382.68,382.67,297,382.67,191.34,297,0,191.34,0" transform="translate(0 0)"/><path class="cls-3" d="M200,150.13c-32.79,0-52.37,24.59-52.37,55.55,0,20.5,10.47,32.8,30.06,32.8,40.53,0,51.91-37.8,51.91-60.58,0-20-10.93-27.77-29.6-27.77" transform="translate(0 0)"/></g></g></g></svg>