<svg xmlns="http://www.w3.org/2000/svg" viewBox="0 0 283.46 368.5"><defs><style>.a{fill:#047762;}.b{fill:#fff;}</style></defs><title>mav_rechts</title><rect class="a" width="283.46" height="368.5" rx="113.39"/><path class="b" d="M177.09,189.28a5.77,5.77,0,0,0,4.55-2.16,5,5,0,0,0-1.22-7.36l-70.21-48a5.91,5.91,0,0,0-7.89,1.14,5,5,0,0,0,1.22,7.36l70.22,48A5.85,5.85,0,0,0,177.09,189.28Z"/><path class="b" d="M106.38,237.75a5.88,5.88,0,0,0,3.33-1l70.21-48a5,5,0,0,0,1.22-7.36,5.91,5.91,0,0,0-7.88-1.13l-70.22,48a5.06,5.06,0,0,0-1.22,7.37A5.81,5.81,0,0,0,106.38,237.75Z"/></svg>