<svg xmlns="http://www.w3.org/2000/svg" viewBox="0 0 283.46 368.5"><defs><style>.a{fill:#047762;}.b{fill:#fff;}</style></defs><title>nav_links</title><rect class="a" width="283.46" height="368.5" rx="113.39"/><path class="b" d="M106.38,189.28a5.79,5.79,0,0,1-4.56-2.16,5,5,0,0,1,1.22-7.36l70.22-48a5.9,5.9,0,0,1,7.88,1.14,5,5,0,0,1-1.22,7.36l-70.21,48A5.88,5.88,0,0,1,106.38,189.28Z"/><path class="b" d="M177.09,237.75a5.85,5.85,0,0,1-3.33-1l-70.22-48a5,5,0,0,1-1.22-7.36,5.92,5.92,0,0,1,7.89-1.13l70.21,48a5,5,0,0,1,1.22,7.37A5.79,5.79,0,0,1,177.09,237.75Z"/></svg>