<svg xmlns="http://www.w3.org/2000/svg" xmlns:xlink="http://www.w3.org/1999/xlink" viewBox="0 0 357.86 345.76"><defs><style>.cls-1{fill:none;}.cls-2{clip-path:url(#clip-path);}.cls-3{fill:#047762;}.cls-4{fill:#f6b5c1;}</style><clipPath id="clip-path" transform="translate(0 0)"><rect class="cls-1" width="357.86" height="345.76"/></clipPath></defs><g id="Ebene_2" data-name="Ebene 2"><g id="Ebene_1-2" data-name="Ebene 1"><g class="cls-2"><path class="cls-3" d="M357.82,72.47A73.28,73.28,0,0,1,354.49,92a14,14,0,0,1-11.2,9.52L244,117.21a14.06,14.06,0,0,1-13.62-5.65,69.82,69.82,0,0,1-12.58-31.45A211.66,211.66,0,0,0,84,206.38a69.89,69.89,0,0,1,29.51,13.42,14.1,14.1,0,0,1,5.24,13.33l-15.42,97.43a14,14,0,0,1-9,11,69.14,69.14,0,0,1-14.29,3.53A70.48,70.48,0,0,1,0,273.38C4.51,118,134.11-4.36,289.49.12a70.35,70.35,0,0,1,68.33,72.35" transform="translate(0 0)"/><path class="cls-4" d="M334.73,249.8,283.3,310.9a11.23,11.23,0,0,1-15.63,0L215.47,249c-43.28-42.32-15.29-92.66,26.89-81.73,9,2.34,23.08,25.54,32.35,34.61,8.67-8.48,25.45-31.45,34-34.61,44-16.37,71,38.57,26.07,82.49" transform="translate(0 0)"/></g></g></g></svg>